<?xml version="1.0" encoding="UTF-8" standalone="no"?>
<!DOCTYPE svg PUBLIC "-//W3C//DTD SVG 1.1//EN" "http://www.w3.org/Graphics/SVG/1.1/DTD/svg11.dtd">
<svg width="100%" height="100%" viewBox="0 0 174 165" version="1.1" xmlns="http://www.w3.org/2000/svg" xmlns:xlink="http://www.w3.org/1999/xlink" xml:space="preserve" xmlns:serif="http://www.serif.com/" style="fill-rule:evenodd;clip-rule:evenodd;stroke-linejoin:round;stroke-miterlimit:2;">
    <g transform="matrix(1,0,0,1,-2.20209,-3)">
        <g transform="matrix(1.04746,0,0,1.04746,-269.36,-167.736)">
            <path d="M335.715,167.566C339.463,164.843 344.537,164.843 348.285,167.566C363.668,178.742 403.074,207.373 418.457,218.549C422.205,221.272 423.773,226.098 422.341,230.504C416.466,248.587 401.414,294.913 395.538,312.996C394.106,317.402 390.001,320.384 385.369,320.384L298.631,320.384C293.999,320.384 289.894,317.402 288.462,312.996C282.586,294.913 267.534,248.587 261.659,230.504C260.227,226.098 261.795,221.272 265.543,218.549C280.926,207.373 320.332,178.742 335.715,167.566Z" style="fill:rgb(235,235,235);"/>
        </g>
    </g>
</svg>
