<?xml version="1.0" encoding="UTF-8" standalone="no"?>
<!DOCTYPE svg PUBLIC "-//W3C//DTD SVG 1.1//EN" "http://www.w3.org/Graphics/SVG/1.1/DTD/svg11.dtd">
<svg width="100%" height="100%" viewBox="0 0 174 165" version="1.1" xmlns="http://www.w3.org/2000/svg" xmlns:xlink="http://www.w3.org/1999/xlink" xml:space="preserve" xmlns:serif="http://www.serif.com/" style="fill-rule:evenodd;clip-rule:evenodd;stroke-linejoin:round;stroke-miterlimit:2;">
    <g transform="matrix(1,0,0,1,-2.20209,-3)">
        <g transform="matrix(1.04746,0,0,1.04746,-269.36,-167.736)">
            <path d="M339.712,164.663C341.076,163.671 342.924,163.671 344.288,164.663C356.155,173.284 410.587,212.832 422.454,221.453C423.818,222.444 424.389,224.202 423.868,225.806C419.335,239.755 398.544,303.745 394.011,317.694C393.49,319.298 391.995,320.384 390.309,320.384L293.691,320.384C292.005,320.384 290.51,319.298 289.989,317.694C285.456,303.745 264.665,239.755 260.132,225.806C259.611,224.202 260.182,222.444 261.546,221.453C273.413,212.832 327.845,173.284 339.712,164.663Z" style="fill:rgb(235,235,235);"/>
        </g>
    </g>
</svg>
