<?xml version="1.0" encoding="UTF-8" standalone="no"?>
<!DOCTYPE svg PUBLIC "-//W3C//DTD SVG 1.1//EN" "http://www.w3.org/Graphics/SVG/1.1/DTD/svg11.dtd">
<svg width="100%" height="100%" viewBox="0 0 189 182" version="1.1" xmlns="http://www.w3.org/2000/svg" xmlns:xlink="http://www.w3.org/1999/xlink" xml:space="preserve" xmlns:serif="http://www.serif.com/" style="fill-rule:evenodd;clip-rule:evenodd;stroke-linejoin:round;stroke-miterlimit:2;">
    <g transform="matrix(1,0,0,1,-334.097,-145)">
        <path d="M417.137,150.324C419.947,146.951 424.11,145 428.5,145C432.89,145 437.053,146.951 439.863,150.324L469.95,186.45L513.604,203.9C517.681,205.53 520.822,208.887 522.179,213.062C523.536,217.237 522.967,221.799 520.627,225.514L495.567,265.291L492.46,312.202C492.17,316.583 489.949,320.608 486.397,323.188C482.845,325.769 478.33,326.638 474.075,325.56L428.5,314.018L382.925,325.56C378.67,326.638 374.155,325.769 370.603,323.188C367.051,320.608 364.83,316.583 364.54,312.202L361.433,265.291L336.373,225.514C334.033,221.799 333.464,217.237 334.821,213.062C336.178,208.887 339.319,205.53 343.396,203.9L387.05,186.45L417.137,150.324Z" style="fill:rgb(235,235,235);"/>
    </g>
</svg>
