<?xml version="1.0" encoding="UTF-8" standalone="no"?>
<!DOCTYPE svg PUBLIC "-//W3C//DTD SVG 1.1//EN" "http://www.w3.org/Graphics/SVG/1.1/DTD/svg11.dtd">
<svg width="100%" height="100%" viewBox="0 0 191 186" version="1.1" xmlns="http://www.w3.org/2000/svg" xmlns:xlink="http://www.w3.org/1999/xlink" xml:space="preserve" xmlns:serif="http://www.serif.com/" style="fill-rule:evenodd;clip-rule:evenodd;stroke-linejoin:round;stroke-miterlimit:2;">
    <g transform="matrix(1,0,0,1,-333.035,-145)">
        <path d="M394.759,167.638C400.37,153.944 413.701,145 428.5,145C443.299,145 456.63,153.944 462.241,167.638L469.95,186.45L490.223,187.968C504.98,189.073 517.606,198.987 522.179,213.062C526.752,227.136 522.365,242.579 511.076,252.147L495.567,265.291L500.388,285.041C503.897,299.418 498.369,314.49 486.397,323.188C474.424,331.887 458.382,332.486 445.794,324.706L428.5,314.018L411.206,324.706C398.618,332.486 382.576,331.887 370.603,323.188C358.631,314.49 353.103,299.418 356.612,285.041L361.433,265.291L345.924,252.147C334.635,242.579 330.248,227.136 334.821,213.062C339.394,198.987 352.02,189.073 366.777,187.968L387.05,186.45L394.759,167.638Z" style="fill:rgb(235,235,235);"/>
    </g>
</svg>
