<?xml version="1.0" encoding="UTF-8"?><svg id="a" xmlns="http://www.w3.org/2000/svg" viewBox="0 0 127.86 134.23"><defs><style>.b{fill:blue;}</style></defs><path class="b" d="M65.85,1.44l8.41,28.54c.4,1.35,2.03,1.88,3.14,1.02l23.58-18.15c1.58-1.22,3.78,.38,3.11,2.26l-9.97,28.03c-.47,1.33,.54,2.71,1.94,2.67l29.74-.82c2-.06,2.84,2.53,1.19,3.66l-24.54,16.81c-1.16,.8-1.16,2.51,0,3.31l24.54,16.81c1.65,1.13,.81,3.71-1.19,3.66l-29.74-.82c-1.41-.04-2.41,1.35-1.94,2.67l9.97,28.03c.67,1.88-1.53,3.48-3.11,2.26l-23.58-18.15c-1.12-.86-2.75-.33-3.14,1.02l-8.41,28.54c-.56,1.92-3.28,1.92-3.84,0l-8.41-28.54c-.4-1.35-2.03-1.88-3.14-1.02l-23.58,18.15c-1.58,1.22-3.78-.38-3.11-2.26l9.97-28.03c.47-1.33-.54-2.71-1.94-2.67l-29.74,.82c-2,.06-2.84-2.53-1.19-3.66l24.54-16.81c1.16-.8,1.16-2.51,0-3.31L.88,48.65c-1.65-1.13-.81-3.71,1.19-3.66l29.74,.82c1.41,.04,2.41-1.35,1.94-2.67L23.77,15.11c-.67-1.88,1.53-3.48,3.11-2.26l23.58,18.15c1.12,.86,2.75,.33,3.14-1.02l4.34-14.74L62.01,1.44c.56-1.92,3.28-1.92,3.84,0Z"/></svg>