<?xml version="1.0" encoding="UTF-8"?><svg id="a" xmlns="http://www.w3.org/2000/svg" viewBox="0 0 138.43 138.43"><defs><style>.b{fill:blue;}</style></defs><path class="b" d="M71.08,1.32l11.4,32.04c.39,1.11,1.66,1.63,2.72,1.12l30.72-14.6c1.68-.8,3.44,.96,2.64,2.64l-14.6,30.72c-.5,1.06,.02,2.32,1.12,2.72l32.04,11.4c1.76,.62,1.76,3.11,0,3.73l-32.04,11.4c-1.11,.39-1.63,1.66-1.12,2.72l14.6,30.72c.8,1.68-.96,3.44-2.64,2.64l-30.72-14.6c-1.06-.5-2.32,.02-2.72,1.12l-11.4,32.04c-.62,1.76-3.11,1.76-3.73,0l-11.4-32.04c-.39-1.11-1.66-1.63-2.72-1.12l-30.72,14.6c-1.68,.8-3.44-.96-2.64-2.64l14.6-30.72c.5-1.06-.02-2.32-1.12-2.72L1.32,71.08c-1.76-.62-1.76-3.11,0-3.73l32.04-11.4c1.11-.39,1.63-1.66,1.12-2.72l-14.6-30.72c-.8-1.68,.96-3.44,2.64-2.64l30.72,14.6c1.06,.5,2.32-.02,2.72-1.12l6.07-17.07,5.33-14.98c.62-1.76,3.11-1.76,3.73,0Z"/></svg>