<?xml version="1.0" encoding="UTF-8"?><svg id="a" xmlns="http://www.w3.org/2000/svg" viewBox="0 0 132.65 133.37"><defs><style>.b{fill:blue;}</style></defs><path class="b" d="M65.38,.71l-6.19,21-3.64,12.37c-.19,.63-.93,.91-1.49,.55l-23.67-15.35c-.77-.5-1.75,.23-1.49,1.11l7.84,26.77c.19,.64-.31,1.29-.98,1.27l-34.74-.96c-.99-.03-1.4,1.25-.59,1.81l28.7,19.66c.55,.37,.58,1.17,.06,1.59L6.68,88.73c-.72,.58-.32,1.75,.61,1.76l28.45,.4c.68,0,1.15,.68,.92,1.32l-11.64,32.72c-.33,.93,.75,1.72,1.54,1.12l27.54-21.2c.53-.41,1.31-.18,1.54,.45l9.77,27.41c.31,.88,1.55,.88,1.86,0l9.77-27.41c.23-.63,1-.86,1.54-.45l27.54,21.2c.78,.6,1.87-.19,1.54-1.12l-11.64-32.72c-.23-.64,.24-1.31,.92-1.32l28.45-.4c.93-.01,1.33-1.18,.61-1.76l-22.51-18.21c-.52-.42-.48-1.21,.06-1.59l28.7-19.66c.81-.56,.4-1.83-.59-1.81l-34.74,.96c-.67,.02-1.17-.62-.98-1.27l7.84-26.77c.26-.88-.72-1.61-1.49-1.11l-23.67,15.35c-.56,.36-1.3,.08-1.49-.55L67.28,.71c-.28-.95-1.62-.95-1.9,0Z"/></svg>