<?xml version="1.0" encoding="UTF-8"?><svg id="a" xmlns="http://www.w3.org/2000/svg" viewBox="0 0 142.37 142.37"><defs><style>.b{fill:blue;}</style></defs><path class="b" d="M27.88,29.13l9.2,27.14c.17,.51-.1,1.07-.6,1.25L.66,70.26c-.87,.31-.87,1.55,0,1.86l35.83,12.74c.51,.18,.78,.74,.6,1.25l-9.2,27.14c-.26,.77,.48,1.51,1.25,1.25l27.14-9.2c.51-.17,1.07,.1,1.25,.6l12.74,35.83c.31,.87,1.55,.87,1.86,0l12.74-35.83c.18-.51,.74-.78,1.25-.6l27.14,9.2c.77,.26,1.51-.48,1.25-1.25l-9.2-27.14c-.17-.51,.1-1.07,.6-1.25l35.83-12.74c.87-.31,.87-1.55,0-1.86l-35.83-12.74c-.51-.18-.78-.74-.6-1.25l9.2-27.14c.26-.77-.48-1.51-1.25-1.25l-27.14,9.2c-.51,.17-1.07-.1-1.25-.6L72.11,.66c-.31-.87-1.55-.87-1.86,0l-6.52,18.34-6.22,17.48c-.18,.51-.74,.78-1.25,.6l-27.14-9.2c-.77-.26-1.51,.48-1.25,1.25Z"/></svg>